<svg version="1.1" xmlns="http://www.w3.org/2000/svg" xmlns:xlink="http://www.w3.org/1999/xlink" width="1668" height="1447.43189" viewBox="0,0,1668,1447.43189"><defs><radialGradient cx="541.38885" cy="388.01841" r="485.21595" gradientUnits="userSpaceOnUse" id="color-1"><stop offset="0" stop-color="#15ff00" stop-opacity="0.16471"/><stop offset="1" stop-color="#15ff00" stop-opacity="0"/></radialGradient><radialGradient cx="72.38886" cy="409.01841" r="485.21595" gradientUnits="userSpaceOnUse" id="color-2"><stop offset="0" stop-color="#15ff00" stop-opacity="0.16471"/><stop offset="1" stop-color="#15ff00" stop-opacity="0"/></radialGradient><radialGradient cx="-206.61114" cy="-18.9816" r="485.21594" gradientUnits="userSpaceOnUse" id="color-3"><stop offset="0" stop-color="#15ff00" stop-opacity="0.16471"/><stop offset="1" stop-color="#15ff00" stop-opacity="0"/></radialGradient><radialGradient cx="531.00001" cy="-67.9816" r="485.21594" gradientUnits="userSpaceOnUse" id="color-4"><stop offset="0" stop-color="#ffffff" stop-opacity="0.32549"/><stop offset="1" stop-color="#ffffff" stop-opacity="0"/></radialGradient></defs><g transform="translate(666.61115,553.19754)"><g data-paper-data="{&quot;isPaintingLayer&quot;:true}" fill-rule="nonzero" stroke-linecap="butt" stroke-linejoin="miter" stroke-miterlimit="10" stroke-dasharray="" stroke-dashoffset="0" style="mix-blend-mode: normal"><path d="M-77.80557,488.15623c-2.20914,0 -4,-1.79086 -4,-4v-530c0,-2.20914 1.79086,-4 4,-4h804c2.20914,0 4,1.79086 4,4v530c0,2.20914 -1.79086,4 -4,4z" fill="#000000" stroke="#000000" stroke-width="2"/><path d="M81.38885,873.23435v-970.43189h920v970.43189z" fill="url(#color-1)" stroke="none" stroke-width="0"/><path d="M-387.61114,894.23435v-970.43189h920v970.43189z" fill="url(#color-2)" stroke="none" stroke-width="0"/><path d="M-666.61115,466.23435v-970.43189h920v970.43189z" fill="url(#color-3)" stroke="none" stroke-width="0"/><path d="M71,417.23435v-970.43189h920v970.43189z" fill="url(#color-4)" stroke="none" stroke-width="0"/></g></g></svg>