<svg version="1.1" xmlns="http://www.w3.org/2000/svg" xmlns:xlink="http://www.w3.org/1999/xlink" width="392" height="270.25" viewBox="0,0,392,270.25"><g transform="translate(-133.09721,22.17188)"><g data-paper-data="{&quot;isPaintingLayer&quot;:true}" stroke-linecap="butt" stroke-linejoin="miter" stroke-miterlimit="10" stroke-dasharray="" stroke-dashoffset="0" style="mix-blend-mode: normal"><path d="M133.09721,248.07812v-136.62234h392v136.62234z" fill-opacity="0.85098" fill="#000000" fill-rule="nonzero" stroke="none" stroke-width="0"/><path d="M310.43953,159.74201l10.76583,-10.76583c0.63096,-0.63491 1.61685,-0.63491 2.24781,0l10.76583,10.76583c1.02532,1.02532 0.27605,2.71709 -1.14362,2.71709h-5.3632l-3.19425,12.65871c-0.31548,1.22644 -1.57742,1.97177 -2.79991,1.65629c-0.86758,-0.19323 -1.49854,-0.86365 -1.69572,-1.65629l-3.19425,-12.65871h-5.2449c-1.41967,0 -2.16893,-1.69177 -1.14362,-2.71709zM342.5,173.38365v6.50682c0,5.00827 -4.06183,9.10954 -9.07011,9.10954h-22.32035c-5.04772,0 -9.10955,-4.10126 -9.10955,-9.10954v-6.50682c0,-1.65628 1.3408,-2.95764 2.95764,-2.95764c1.61685,0 2.95764,1.30137 2.95764,2.95764v6.50682c0,1.73515 1.41968,3.19425 3.19426,3.19425h22.32035c1.73515,0 3.15482,-1.4591 3.15482,-3.19425v-6.50682c0,-1.65628 1.3408,-2.95764 2.95764,-2.95764c1.65628,0 2.95764,1.30137 2.95764,2.95764z" fill="#ffffff" fill-rule="evenodd" stroke="none" stroke-width="1"/><text transform="translate(259.09721,211.81436) scale(0.26284,0.26284)" font-size="40" xml:space="preserve" fill="#ffffff" fill-rule="nonzero" stroke="none" stroke-width="1" stroke-linecap="butt" stroke-linejoin="miter" stroke-miterlimit="10" stroke-dasharray="" stroke-dashoffset="0" font-family="Sans Serif" font-weight="normal" text-anchor="start" style="mix-blend-mode: normal"><tspan x="0" dy="0">Click Anywhere to Upload</tspan></text><path d="M148.84721,40.82812c-2.20914,0 -4,-1.79086 -4,-4v-54c0,-2.20914 1.79086,-4 4,-4h118.5c2.20914,0 4,1.79086 4,4v54c0,2.20914 -1.79086,4 -4,4z" fill="#000000" fill-rule="nonzero" stroke="#000000" stroke-width="2"/></g></g></svg>